<?xml version="1.0" standalone="no"?>
<!DOCTYPE svg PUBLIC "-//W3C//DTD SVG 20010904//EN"
 "http://www.w3.org/TR/2001/REC-SVG-20010904/DTD/svg10.dtd">
<svg version="1.0" xmlns="http://www.w3.org/2000/svg"
 width="400px" height="354.px" viewBox="0 0 400px 354px"
 preserveAspectRatio="xMidYMid meet">

<g transform="translate(0.000000,354.000000) scale(0.100000,-0.100000)"
fill="#ffffff" stroke="none">
<path d="M2050 3530 c-260 -32 -485 -105 -702 -228 -264 -149 -502 -386 -654
-652 l-49 -84 -7 154 c-8 170 -80 761 -90 744 -16 -26 -39 -269 -46 -484 -7
-232 -7 -235 -29 -238 -17 -2 -24 3 -27 20 -3 13 -7 138 -10 278 -4 249 -21
459 -36 443 -18 -19 -32 -217 -36 -493 -3 -162 -7 -305 -10 -317 -3 -16 -12
-23 -29 -23 -17 0 -26 7 -29 23 -3 12 -7 153 -10 312 -4 285 -19 481 -37 500
-6 6 -9 6 -9 0 0 -6 -7 -73 -15 -150 -8 -78 -15 -235 -15 -356 0 -179 -3 -219
-15 -229 -37 -31 -42 -11 -49 237 -7 220 -27 439 -45 470 -4 7 -17 -69 -29
-170 -13 -100 -32 -256 -44 -347 -24 -199 -29 -399 -10 -453 20 -54 57 -94
135 -144 84 -54 101 -87 116 -225 28 -253 6 -614 -74 -1188 -50 -362 -58 -439
-53 -563 3 -96 7 -120 31 -172 57 -124 122 -194 166 -180 28 8 86 76 115 132
74 148 74 258 1 774 -67 480 -90 768 -82 1042 7 275 22 318 134 388 l62 39
-15 -43 c-57 -160 -94 -385 -94 -577 0 -928 709 -1690 1638 -1760 320 -24 632
38 927 185 187 94 175 79 191 226 22 201 43 504 55 814 12 284 11 292 -9 337
-14 32 -36 58 -73 85 -30 22 -59 46 -66 54 -23 28 -36 223 -36 534 1 405 24
606 99 869 40 138 49 117 -91 195 -255 142 -531 217 -825 226 -80 2 -179 0
-220 -5z"/>
<path d="M3546 2693 c-4 -131 -12 -380 -18 -553 -17 -445 -15 -893 6 -1235 10
-159 19 -292 21 -294 6 -5 52 50 122 148 73 100 179 308 223 436 176 508 101
1104 -194 1544 -59 89 -137 190 -147 191 -3 0 -9 -107 -13 -237z"/>
</g>
</svg>
